<!DOCTYPE svg PUBLIC "-//W3C//DTD SVG 1.1//EN" "http://www.w3.org/Graphics/SVG/1.1/DTD/svg11.dtd">
<!-- Uploaded to: SVG Repo, www.svgrepo.com, Transformed by: SVG Repo Mixer Tools -->
<svg fill="#2461FF" width="64px" height="64px" viewBox="0 0 24.00 24.00" xmlns="http://www.w3.org/2000/svg" stroke="#2461FF" stroke-width="1.2">
<g id="SVGRepo_bgCarrier" stroke-width="0"/>
<g id="SVGRepo_tracerCarrier" stroke-linecap="round" stroke-linejoin="round"/>
<g id="SVGRepo_iconCarrier"> <g id="Medical_Case" data-name="Medical Case"> <g> <path d="M18.435,6.465h-1.43v-.9a2.5,2.5,0,0,0-2.5-2.5h-5a2.5,2.5,0,0,0-2.5,2.5v.9H5.565a2.5,2.5,0,0,0-2.5,2.5v9.47a2.5,2.5,0,0,0,2.5,2.5h12.87a2.5,2.5,0,0,0,2.5-2.5V8.965A2.5,2.5,0,0,0,18.435,6.465Zm-10.43-.9a1.5,1.5,0,0,1,1.5-1.5h5a1.5,1.5,0,0,1,1.5,1.5v.9h-8Zm11.93,12.87a1.5,1.5,0,0,1-1.5,1.5H5.565a1.5,1.5,0,0,1-1.5-1.5V8.965a1.5,1.5,0,0,1,1.5-1.5h12.87a1.5,1.5,0,0,1,1.5,1.5Z"/> <path d="M14.505,13.675a.5.5,0,0,1-.5.5h-1.5v1.5a.5.5,0,0,1-.5.5.5.5,0,0,1-.5-.5v-1.5h-1.5a.5.5,0,0,1-.5-.5.5.5,0,0,1,.5-.5h1.5v-1.5a.5.5,0,0,1,.5-.5.508.508,0,0,1,.5.5v1.5h1.5A.508.508,0,0,1,14.505,13.675Z"/> </g> </g> </g>
</svg>